<!-- Placeholder for classico template preview -->
<svg width="200" height="280" xmlns="http://www.w3.org/2000/svg">
  <!-- Background -->
  <rect width="100%" height="100%" fill="#ffffff" stroke="#e0e0e0"/>
  
  <!-- Header -->
  <rect x="0" y="0" width="100%" height="50" fill="#2c3e50"/>
  <text x="100" y="25" font-family="Times, serif" font-size="16" font-weight="bold" fill="white" text-anchor="middle">João Silva</text>
  <text x="100" y="40" font-family="Times, serif" font-size="8" fill="white" text-anchor="middle">joão@email.com | (11) 99999-9999</text>
  
  <!-- Sections -->
  <rect x="10" y="60" width="180" height="12" fill="#3498db"/>
  <text x="15" y="70" font-family="Times, serif" font-size="8" font-weight="bold" fill="white">RESUMO PROFISSIONAL</text>
  
  <rect x="10" y="80" width="180" height="2" fill="#f0f0f0"/>
  <rect x="10" y="85" width="160" height="2" fill="#f0f0f0"/>
  <rect x="10" y="90" width="170" height="2" fill="#f0f0f0"/>
  
  <rect x="10" y="105" width="180" height="12" fill="#3498db"/>
  <text x="15" y="115" font-family="Times, serif" font-size="8" font-weight="bold" fill="white">EXPERIÊNCIA PROFISSIONAL</text>
  
  <text x="10" y="135" font-family="Times, serif" font-size="9" font-weight="bold" fill="#2c3e50">Desenvolvedor Senior</text>
  <text x="10" y="148" font-family="Times, serif" font-size="7" fill="#3498db">TechCorp</text>
  <text x="150" y="148" font-family="Times, serif" font-size="6" fill="#666">2020-2023</text>
  
  <rect x="10" y="155" width="150" height="2" fill="#f0f0f0"/>
  <rect x="10" y="160" width="140" height="2" fill="#f0f0f0"/>
  
  <rect x="10" y="175" width="180" height="12" fill="#3498db"/>
  <text x="15" y="185" font-family="Times, serif" font-size="8" font-weight="bold" fill="white">COMPETÊNCIAS</text>
  
  <text x="10" y="205" font-family="Times, serif" font-size="7" fill="#2c3e50">Tecnologias:</text>
  <!-- Skills as text list -->
  <circle cx="15" cy="218" r="2" fill="#3498db"/>
  <text x="22" y="221" font-family="Times, serif" font-size="6" fill="#333">PHP, Laravel, Vue.js</text>
  
  <circle cx="15" cy="230" r="2" fill="#3498db"/>
  <text x="22" y="233" font-family="Times, serif" font-size="6" fill="#333">MySQL, Git, Docker</text>
  
  <text x="10" y="260" font-family="Times, serif" font-size="10" font-weight="bold" fill="#2c3e50">Template Clássico</text>
  <text x="10" y="275" font-family="Times, serif" font-size="6" fill="#7f8c8d">Layout tradicional e profissional</text>
</svg>
