<!-- Placeholder for criativo template preview -->
<svg width="200" height="280" xmlns="http://www.w3.org/2000/svg">
  <defs>
    <linearGradient id="bgGrad" x1="0%" y1="0%" x2="100%" y2="100%">
      <stop offset="0%" style="stop-color:#667eea;stop-opacity:1" />
      <stop offset="100%" style="stop-color:#764ba2;stop-opacity:1" />
    </linearGradient>
    <linearGradient id="skillGrad" x1="0%" y1="0%" x2="100%" y2="0%">
      <stop offset="0%" style="stop-color:#e74c3c;stop-opacity:1" />
      <stop offset="100%" style="stop-color:#f39c12;stop-opacity:1" />
    </linearGradient>
  </defs>
  
  <!-- Background with gradient -->
  <rect width="100%" height="100%" fill="url(#bgGrad)"/>
  
  <!-- White content area -->
  <rect x="10" y="10" width="180" height="260" fill="white" rx="10"/>
  
  <!-- Header -->
  <text x="100" y="40" font-family="Helvetica, sans-serif" font-size="18" font-weight="300" fill="#e74c3c" text-anchor="middle">João Silva</text>
  <text x="100" y="55" font-family="Helvetica, sans-serif" font-size="8" fill="#7f8c8d" text-anchor="middle" font-style="italic">Profissional Criativo</text>
  <line x1="20" y1="65" x2="180" y2="65" stroke="#e74c3c" stroke-width="2"/>
  <text x="100" y="78" font-family="Helvetica, sans-serif" font-size="6" fill="#333" text-anchor="middle">joão@email.com • (11) 99999-9999</text>
  
  <!-- Sections with creative styling -->
  <text x="20" y="100" font-family="Helvetica, sans-serif" font-size="8" font-weight="bold" fill="#e74c3c">PERFIL PROFISSIONAL</text>
  <line x1="20" y1="103" x2="120" y2="103" stroke="#e74c3c" stroke-width="1"/>
  
  <rect x="20" y="110" width="160" height="2" fill="#f8f9fa"/>
  <rect x="20" y="115" width="140" height="2" fill="#f8f9fa"/>
  <rect x="20" y="120" width="150" height="2" fill="#f8f9fa"/>
  
  <text x="20" y="140" font-family="Helvetica, sans-serif" font-size="8" font-weight="bold" fill="#e74c3c">EXPERIÊNCIA</text>
  <line x1="20" y1="143" x2="90" y2="143" stroke="#e74c3c" stroke-width="1"/>
  
  <text x="20" y="158" font-family="Helvetica, sans-serif" font-size="9" font-weight="bold" fill="#e74c3c">Desenvolvedor Senior</text>
  <text x="20" y="170" font-family="Helvetica, sans-serif" font-size="7" fill="#333">TechCorp • 2020-2023</text>
  
  <rect x="20" y="175" width="130" height="2" fill="#f8f9fa"/>
  <rect x="20" y="180" width="120" height="2" fill="#f8f9fa"/>
  
  <text x="20" y="200" font-family="Helvetica, sans-serif" font-size="8" font-weight="bold" fill="#e74c3c">COMPETÊNCIAS</text>
  <line x1="20" y1="203" x2="100" y2="203" stroke="#e74c3c" stroke-width="1"/>
  
  <!-- Creative skill boxes -->
  <rect x="20" y="210" width="25" height="12" rx="6" fill="url(#skillGrad)"/>
  <text x="32" y="218" font-family="Helvetica, sans-serif" font-size="5" fill="white" text-anchor="middle">PHP</text>
  
  <rect x="50" y="210" width="30" height="12" rx="6" fill="url(#skillGrad)"/>
  <text x="65" y="218" font-family="Helvetica, sans-serif" font-size="5" fill="white" text-anchor="middle">Laravel</text>
  
  <rect x="85" y="210" width="25" height="12" rx="6" fill="url(#skillGrad)"/>
  <text x="97" y="218" font-family="Helvetica, sans-serif" font-size="5" fill="white" text-anchor="middle">Vue.js</text>
  
  <rect x="20" y="227" width="28" height="12" rx="6" fill="url(#skillGrad)"/>
  <text x="34" y="235" font-family="Helvetica, sans-serif" font-size="5" fill="white" text-anchor="middle">MySQL</text>
  
  <rect x="52" y="227" width="20" height="12" rx="6" fill="url(#skillGrad)"/>
  <text x="62" y="235" font-family="Helvetica, sans-serif" font-size="5" fill="white" text-anchor="middle">Git</text>
  
  <text x="20" y="255" font-family="Helvetica, sans-serif" font-size="10" font-weight="bold" fill="#e74c3c">Template Criativo</text>
  <text x="20" y="268" font-family="Helvetica, sans-serif" font-size="6" fill="#7f8c8d">Visual inovador e diferenciado</text>
</svg>
